<svg width="13" height="26" viewBox="0 0 13 26" fill="none" xmlns="http://www.w3.org/2000/svg">
<path d="M12.9941 12.8493C12.9598 12.5209 12.8251 12.211 12.6082 11.9617L2.9452 0.707637C2.81818 0.519981 2.65287 0.361239 2.46012 0.241793C2.26736 0.122347 2.0515 0.0449059 1.82668 0.01453C1.60186 -0.0158459 1.37314 0.00152397 1.15552 0.0655235C0.937889 0.129523 0.736261 0.238712 0.563839 0.38591C0.391418 0.533107 0.252092 0.715002 0.154988 0.91969C0.0578837 1.12438 0.00519244 1.34721 0.00036474 1.57364C-0.00446296 1.80007 0.0386813 2.02499 0.126973 2.23362C0.215265 2.44224 0.346713 2.62989 0.512705 2.78428L9.28654 13L0.512705 23.2157C0.346713 23.3701 0.215265 23.5578 0.126973 23.7664C0.0386813 23.975 -0.00446296 24.1999 0.00036474 24.4263C0.00519244 24.6528 0.0578837 24.8756 0.154988 25.0803C0.252092 25.285 0.391418 25.4669 0.563839 25.6141C0.736261 25.7613 0.937889 25.8705 1.15552 25.9345C1.37314 25.9985 1.60186 26.0158 1.82668 25.9855C2.0515 25.9551 2.26736 25.8776 2.46012 25.7582C2.65287 25.6388 2.81818 25.48 2.9452 25.2924L12.6082 14.0383C12.7488 13.8759 12.8553 13.687 12.9216 13.4828C12.9879 13.2786 13.0125 13.0632 12.9941 12.8493Z" fill="#4AC2A2"/>
</svg>
