<svg width="20" height="23" viewBox="0 0 20 23" fill="none" xmlns="http://www.w3.org/2000/svg">
<path d="M1.02144 6.89198H2.42761V18.6084C2.42761 20.5083 4.00477 22.0543 5.94304 22.0543H14.3801C16.3183 22.0543 17.8955 20.5083 17.8955 18.6084V6.89198H19.3016C19.6897 6.89198 20.0047 6.58322 20.0047 6.20279V4.82439C20.0047 3.68418 19.0587 2.75679 17.8955 2.75679H12.2708V2.0676C12.2708 0.927385 11.3247 0 10.1615 0C8.99836 0 8.05229 0.927385 8.05229 2.0676V2.75679H2.42761C1.26443 2.75679 0.318359 3.68418 0.318359 4.82439V6.20279C0.318359 6.58322 0.633341 6.89198 1.02144 6.89198ZM16.4893 18.6084C16.4893 19.7486 15.5432 20.676 14.3801 20.676H5.94304C4.77985 20.676 3.83378 19.7486 3.83378 18.6084V6.89198H16.4893V18.6084ZM9.45846 2.0676C9.45846 1.68716 9.77344 1.3784 10.1615 1.3784C10.5496 1.3784 10.8646 1.68716 10.8646 2.0676V2.75679H9.45846V2.0676ZM1.72453 4.82439C1.72453 4.44395 2.03951 4.13519 2.42761 4.13519H17.8955C18.2836 4.13519 18.5986 4.44395 18.5986 4.82439V5.51359H1.72453V4.82439Z" fill="var(--unselected-color)"/>
<path d="M6.64474 19.2939C7.03284 19.2939 7.34782 18.9851 7.34782 18.6047V8.96361C7.34782 8.58317 7.03284 8.27441 6.64474 8.27441C6.25663 8.27441 5.94165 8.58317 5.94165 8.96361V18.6047C5.94165 18.9851 6.25663 19.2939 6.64474 19.2939Z" fill="var(--unselected-color)"/>
<path d="M10.163 19.2939C10.5511 19.2939 10.8661 18.9851 10.8661 18.6047V8.96361C10.8661 8.58317 10.5511 8.27441 10.163 8.27441C9.77494 8.27441 9.45996 8.58317 9.45996 8.96361V18.6047C9.45996 18.9851 9.77494 19.2939 10.163 19.2939Z" fill="var(--unselected-color)"/>
<path d="M13.6779 19.2939C14.066 19.2939 14.381 18.9851 14.381 18.6047V8.96361C14.381 8.58317 14.066 8.27441 13.6779 8.27441C13.2898 8.27441 12.9749 8.58317 12.9749 8.96361V18.6047C12.9749 18.9851 13.2898 19.2939 13.6779 19.2939Z" fill="var(--unselected-color)"/>
</svg>


