<svg width="20" height="17" viewBox="0 0 20 17" xmlns="http://www.w3.org/2000/svg">
<path d="M9.74078 16.9953C9.98405 16.97 10.2136 16.8702 10.3983 16.7095L18.7346 9.55175C18.8736 9.45765 18.9912 9.33521 19.0797 9.19243C19.1682 9.04964 19.2255 8.88975 19.248 8.72321C19.2705 8.55668 19.2577 8.38726 19.2103 8.22605C19.1628 8.06485 19.082 7.9155 18.9729 7.78778C18.8639 7.66006 18.7292 7.55685 18.5775 7.48492C18.4259 7.41299 18.2609 7.37396 18.0931 7.37039C17.9254 7.36681 17.7588 7.39877 17.6043 7.46417C17.4497 7.52957 17.3107 7.62694 17.1964 7.7499L9.62916 14.249L2.06196 7.7499C1.9476 7.62694 1.80858 7.52957 1.65404 7.46417C1.4995 7.39877 1.33292 7.36681 1.1652 7.37039C0.997473 7.37396 0.832384 7.41299 0.680763 7.48492C0.529142 7.55685 0.39443 7.66006 0.285395 7.78778C0.176359 7.9155 0.0954551 8.06485 0.048048 8.22605C0.000640825 8.38726 -0.0122014 8.55668 0.0102977 8.72321C0.0327987 8.88975 0.0901622 9.04964 0.178642 9.19242C0.26712 9.33521 0.384706 9.45765 0.52371 9.55175L8.86004 16.7095C8.98036 16.8136 9.12028 16.8926 9.27154 16.9417C9.42281 16.9908 9.58236 17.009 9.74078 16.9953Z" fill="#4AC2A2"/>
<path d="M9.74274 9.62523C9.986 9.59984 10.2156 9.50004 10.4002 9.3394L18.7366 2.18163C18.8756 2.08754 18.9932 1.96509 19.0816 1.82231C19.1701 1.67953 19.2275 1.51963 19.25 1.3531C19.2725 1.18656 19.2596 1.01714 19.2122 0.855937C19.1648 0.694733 19.0839 0.545379 18.9749 0.417659C18.8658 0.289939 18.7311 0.186735 18.5795 0.114806C18.4279 0.0428767 18.2628 0.00384621 18.0951 0.000270127C17.9274 -0.00330595 17.7608 0.0286527 17.6062 0.0940542C17.4517 0.159456 17.3127 0.256824 17.1983 0.379781L9.63111 6.87892L2.06392 0.37978C1.94955 0.256824 1.81053 0.159455 1.656 0.0940535C1.50146 0.028652 1.33488 -0.00330668 1.16715 0.000269387C0.999426 0.00384545 0.834337 0.042876 0.682716 0.114805C0.531095 0.186734 0.396383 0.289938 0.287348 0.417658C0.178312 0.545378 0.0974083 0.694732 0.0500011 0.855936C0.00259395 1.01714 -0.0102482 1.18656 0.0122508 1.3531C0.0347518 1.51963 0.0921153 1.67953 0.180595 1.82231C0.269073 1.96509 0.38666 2.08754 0.525663 2.18163L8.86199 9.3394C8.98232 9.44352 9.12223 9.52246 9.27349 9.57155C9.42476 9.62064 9.58432 9.63889 9.74274 9.62523Z" fill="#4AC2A2"/>
</svg>
