<svg width="25" height="24" viewBox="0 0 25 24" fill="none" xmlns="http://www.w3.org/2000/svg">
<path d="M22.7168 6.44325C22.9282 6.23625 23.096 5.99042 23.2104 5.71983C23.3248 5.44924 23.3837 5.15919 23.3837 4.86627C23.3837 4.57334 23.3248 4.28329 23.2104 4.0127C23.096 3.74211 22.9282 3.49629 22.7168 3.28928L20.9659 1.57202C20.5387 1.15479 19.9602 0.920532 19.3571 0.920532C18.7541 0.920532 18.1756 1.15479 17.7484 1.57202L16.626 2.67224L21.5954 7.54256L22.7168 6.44325Z" fill="var(--unselected-color)"/>
<path d="M7.48291 12.0098V15.5855C7.48291 15.8287 7.58145 16.0619 7.75686 16.2338C7.93227 16.4058 8.17017 16.5024 8.41824 16.5024H12.066C12.314 16.5023 12.5519 16.4057 12.7273 16.2337L20.2707 8.83931L15.2994 3.96899L7.75696 11.368C7.58314 11.5383 7.48469 11.7689 7.48291 12.0098Z" fill="var(--unselected-color)"/>
<path d="M23.3831 11.0022C23.1351 11.0022 22.8972 11.0988 22.7218 11.2708C22.5463 11.4427 22.4478 11.6759 22.4478 11.9191V19.1191C22.4468 19.8841 22.1364 20.6174 21.5846 21.1583C21.0328 21.6992 20.2847 22.0035 19.5043 22.0044H4.81412C4.03377 22.0035 3.28566 21.6992 2.73387 21.1583C2.18207 20.6174 1.87164 19.8841 1.87065 19.1191V4.71904C1.87164 3.9541 2.18207 3.22077 2.73387 2.67987C3.28566 2.13898 4.03377 1.83467 4.81412 1.8337H12.1592C12.4073 1.8337 12.6452 1.73711 12.8206 1.56516C12.996 1.39322 13.0946 1.16002 13.0946 0.916852C13.0946 0.673688 12.996 0.440483 12.8206 0.26854C12.6452 0.0965966 12.4073 0 12.1592 0H4.81412C3.53787 0.00169798 2.31438 0.499426 1.41194 1.38405C0.509489 2.26867 0.00173219 3.46799 0 4.71904V19.1191C0.00173219 20.3702 0.509489 21.5695 1.41194 22.4541C2.31438 23.3387 3.53787 23.8365 4.81412 23.8382H19.5043C20.7806 23.8365 22.0041 23.3387 22.9065 22.4541C23.809 21.5695 24.3167 20.3702 24.3185 19.1191V11.9191C24.3185 11.6759 24.2199 11.4427 24.0445 11.2708C23.8691 11.0988 23.6312 11.0022 23.3831 11.0022Z" fill="var(--unselected-color)"/>
</svg>


