<svg width="48" height="48" viewBox="0 0 48 48" fill="none" xmlns="http://www.w3.org/2000/svg">
<path d="M33.8527 14.1473C33.1454 13.44 31.9832 13.44 31.2254 14.1473L24.0001 21.3726L16.7243 14.1473C16.0169 13.44 14.8548 13.44 14.0969 14.1473C13.3896 14.8547 13.3896 16.0168 14.0969 16.7747L21.3727 24L14.1475 31.2758C13.4401 31.9831 13.4401 33.1452 14.1475 33.9031C14.5011 34.2568 15.0064 34.4589 15.4611 34.4589C15.9159 34.4589 16.4211 34.2568 16.7748 33.9031L24.0001 26.6273L31.2759 33.9031C31.6296 34.2568 32.1348 34.4589 32.5896 34.4589C33.0443 34.4589 33.5496 34.2568 33.9032 33.9031C34.6106 33.1958 34.6106 32.0337 33.9032 31.2758L26.6275 24L33.9032 16.7242C34.6106 16.0168 34.6106 14.8547 33.8527 14.1473Z" fill="var(--light-color)"/>
<path d="M24 0C10.7621 0 0 10.7621 0 24C0 37.2379 10.7621 48 24 48C37.2379 48 48 37.2379 48 24C48 10.7621 37.2379 0 24 0ZM24 44.3116C12.7832 44.3116 3.68842 35.2168 3.68842 24C3.68842 12.7832 12.7832 3.68842 24 3.68842C35.2168 3.68842 44.3116 12.7832 44.3116 24C44.3116 35.2168 35.2168 44.3116 24 44.3116Z" fill="var(--light-color)"/>
</svg>

