<svg width="21" height="25" viewBox="0 0 21 25" fill="none" xmlns="http://www.w3.org/2000/svg">
<path d="M11.5646 0.0732887C9.95456 -0.306798 8.45908 0.843005 8.35129 2.33155C8.23004 4.00297 7.96395 5.53764 7.6305 6.45048C7.41999 7.023 6.82381 8.06148 5.87903 9.05702C4.94099 10.0478 3.72001 10.9304 2.29021 11.2994C1.15849 11.5904 0.00488281 12.516 0.00488281 13.8677V20.2306C0.00488281 21.5744 1.15344 22.5589 2.44346 22.6877C4.24545 22.869 5.0774 23.3477 5.92619 23.8375L6.00702 23.8852C6.4651 24.1476 6.98043 24.4386 7.6406 24.6549C8.30919 24.8712 9.09062 25 10.1095 25H16.0039C17.5819 25 18.6967 24.2414 19.2609 23.3079C19.5336 22.8674 19.6809 22.3677 19.6887 21.8575C19.6887 21.6158 19.6499 21.3613 19.559 21.1196C19.8975 20.7014 20.199 20.2004 20.3808 19.6867C20.5661 19.1619 20.6705 18.4749 20.3876 17.8595C20.5038 17.6527 20.5897 17.4317 20.6553 17.2186C20.785 16.7892 20.8456 16.3153 20.8456 15.8556C20.8456 15.3976 20.785 14.9253 20.6553 14.4943C20.5964 14.2962 20.5186 14.1035 20.4229 13.9186C20.7178 13.5224 20.9076 13.0651 20.9761 12.5852C21.0447 12.1053 20.9901 11.6168 20.817 11.161C20.4701 10.2195 19.6685 9.41166 18.7961 9.13813C17.3697 8.68965 15.7597 8.6992 14.5589 8.80257C14.3096 8.82375 14.0609 8.85026 13.8128 8.88208C14.3971 6.51948 14.3612 4.05786 13.7084 1.71132C13.5949 1.33535 13.377 0.994857 13.0774 0.72505C12.7777 0.455243 12.4072 0.26592 12.0041 0.17666L11.5646 0.0732887ZM16.0039 23.4113H10.1095C9.2506 23.4113 8.65612 23.3015 8.18962 23.1505C7.71639 22.9962 7.33746 22.7879 6.88276 22.5255L6.81539 22.4873C5.88072 21.9482 4.79784 21.3248 2.62198 21.1069C2.06117 21.0496 1.68899 20.6457 1.68899 20.2322V13.8677C1.68899 13.4638 2.06959 13.0042 2.73313 12.834C4.57722 12.3569 6.0626 11.2501 7.13537 10.1178C8.20478 8.98864 8.92726 7.77204 9.22029 6.97211C9.62953 5.85888 9.90572 4.16042 10.032 2.43969C10.0741 1.86399 10.6383 1.49504 11.1553 1.6159L11.5966 1.72086C11.866 1.78448 12.0311 1.94828 12.0816 2.12639C12.7693 4.60097 12.6845 7.21057 11.8374 9.64067C11.7894 9.77582 11.7808 9.92067 11.8125 10.06C11.8442 10.1994 11.9149 10.3282 12.0173 10.4329C12.1198 10.5376 12.2501 10.6143 12.3947 10.6551C12.5394 10.696 12.693 10.6993 12.8394 10.6648L12.8445 10.6632L12.8681 10.6585L12.9657 10.6362C13.5416 10.5207 14.1242 10.4374 14.7105 10.3865C15.827 10.2911 17.1642 10.3007 18.2639 10.6473C18.5586 10.7396 19.0218 11.1244 19.2239 11.6811C19.4041 12.1709 19.3704 12.7466 18.7759 13.3064L18.1814 13.8677L18.7759 14.4307C18.8483 14.4991 18.9527 14.655 19.0352 14.9317C19.1161 15.1973 19.1615 15.5201 19.1615 15.8556C19.1615 16.1928 19.1161 16.514 19.0352 16.7812C18.951 17.0579 18.8483 17.2138 18.7759 17.2822L18.1814 17.8435L18.7759 18.4065C18.855 18.4813 18.9595 18.688 18.7843 19.1826C18.6018 19.6622 18.3117 20.0989 17.9338 20.4628L17.3393 21.0242L17.9338 21.5872C17.9439 21.5951 18.0029 21.6667 18.0029 21.8575C17.9954 22.0908 17.9253 22.3184 17.7991 22.5191C17.5212 22.9771 16.952 23.4113 16.0039 23.4113Z" fill="var(--unselected-color)"/>
</svg>
