<svg width="23" height="24" viewBox="0 0 23 24" fill="none" xmlns="http://www.w3.org/2000/svg">
<path d="M4.02683 1C3.77074 1.02561 3.56586 1.2561 3.56586 1.5122V9.19512H2.54147C1.69635 9.19512 1.00488 9.88658 1.00488 10.7317V18.9268C1.00488 19.7719 1.69635 20.4634 2.54147 20.4634H3.56586V23.0244C3.56586 23.3061 3.79635 23.5366 4.07805 23.5366H18.9317C19.2134 23.5366 19.4439 23.3061 19.4439 23.0244V20.4634H20.4683C21.3134 20.4634 22.0049 19.7719 22.0049 18.9268V10.7317C22.0049 9.88658 21.3134 9.19512 20.4683 9.19512H19.4439V4.6622C19.4439 4.53415 19.3927 4.4061 19.2902 4.30366L16.1915 1.15366C16.1146 1.05122 15.961 1 15.8329 1H4.07805C4.05244 1 4.05244 1 4.02683 1ZM4.59025 2.02439H15.6281L18.4195 4.89268V9.19512H4.59025V2.02439ZM2.54147 10.2195H20.4683C20.75 10.2195 20.9805 10.45 20.9805 10.7317V18.9268C20.9805 19.2085 20.75 19.439 20.4683 19.439H19.4439V17.9024C19.4439 17.6207 19.2134 17.3902 18.9317 17.3902H4.07805C4.05244 17.3902 4.05244 17.3902 4.02683 17.3902C3.77074 17.4159 3.56586 17.6463 3.56586 17.9024V19.439H2.54147C2.25976 19.439 2.02927 19.2085 2.02927 18.9268V10.7317C2.02927 10.45 2.25976 10.2195 2.54147 10.2195ZM16.1146 11.5C15.6793 11.5 15.3463 11.8329 15.3463 12.2683C15.3463 12.7037 15.6793 13.0366 16.1146 13.0366C16.55 13.0366 16.8829 12.7037 16.8829 12.2683C16.8829 11.8329 16.55 11.5 16.1146 11.5ZM18.6756 11.5C18.2402 11.5 17.9073 11.8329 17.9073 12.2683C17.9073 12.7037 18.2402 13.0366 18.6756 13.0366C19.111 13.0366 19.4439 12.7037 19.4439 12.2683C19.4439 11.8329 19.111 11.5 18.6756 11.5ZM4.28293 11.7561C4.00122 11.7817 3.77074 12.0122 3.79635 12.2939C3.82196 12.5756 4.05244 12.8061 4.33415 12.7805H6.89513C7.17683 12.7805 7.40732 12.55 7.40732 12.2683C7.40732 11.9866 7.17683 11.7561 6.89513 11.7561C6.89513 11.7561 6.89513 11.7561 6.86952 11.7561H4.33415C4.30854 11.7561 4.30854 11.7561 4.28293 11.7561ZM4.59025 18.4146H18.4195V22.5122H4.59025V18.4146Z" fill="var(--unselected-color)" stroke="var(--unselected-color)" stroke-width="0.3"/>
</svg>



