<svg width="28" height="24" viewBox="0 0 28 24" fill="none" xmlns="http://www.w3.org/2000/svg">
<path d="M25.2268 6.33337H23.2559V2.00001C23.2559 1.46958 23.0068 0.960865 22.5632 0.58579C22.1197 0.210715 21.5182 0 20.8909 0H6.70086C6.07362 0 5.47207 0.210715 5.02854 0.58579C4.58502 0.960865 4.33585 1.46958 4.33585 2.00001V6.33337H2.36501C1.73777 6.33337 1.13622 6.54409 0.692695 6.91916C0.24917 7.29424 0 7.80295 0 8.33338V22.0001C0 22.5306 0.24917 23.0393 0.692695 23.4144C1.13622 23.7894 1.73777 24.0001 2.36501 24.0001H25.2268C25.854 24.0001 26.4556 23.7894 26.8991 23.4144C27.3426 23.0393 27.5918 22.5306 27.5918 22.0001V8.33338C27.5918 8.07074 27.5306 7.81066 27.4117 7.56801C27.2929 7.32536 27.1187 7.10488 26.8991 6.91916C26.6795 6.73344 26.4187 6.58612 26.1318 6.48561C25.8449 6.3851 25.5373 6.33337 25.2268 6.33337ZM5.91252 2.00001C5.91252 1.8232 5.99558 1.65363 6.14342 1.5286C6.29126 1.40358 6.49178 1.33334 6.70086 1.33334H20.8909C21.1 1.33334 21.3005 1.40358 21.4484 1.5286C21.5962 1.65363 21.6792 1.8232 21.6792 2.00001V13.3334H19.3142C18.687 13.3334 18.0855 13.5441 17.6419 13.9192C17.1984 14.2943 16.9492 14.803 16.9492 15.3334V15.6668C16.9492 15.7543 16.9288 15.841 16.8892 15.9219C16.8496 16.0028 16.7915 16.0763 16.7183 16.1382C16.6451 16.2001 16.5582 16.2492 16.4626 16.2827C16.3669 16.3162 16.2644 16.3334 16.1609 16.3334H11.4309C11.2218 16.3334 11.0213 16.2632 10.8734 16.1382C10.7256 16.0131 10.6425 15.8436 10.6425 15.6668V15.3334C10.6425 14.803 10.3934 14.2943 9.94985 13.9192C9.50632 13.5441 8.90477 13.3334 8.27753 13.3334H5.91252V2.00001ZM25.2268 22.6668H2.36501C2.15593 22.6668 1.95541 22.5966 1.80757 22.4715C1.65973 22.3465 1.57667 22.1769 1.57667 22.0001V14.6668H8.27753C8.48661 14.6668 8.68713 14.737 8.83497 14.862C8.98281 14.987 9.06587 15.1566 9.06587 15.3334V15.6668C9.06587 16.1972 9.31504 16.7059 9.75856 17.081C10.2021 17.4561 10.8036 17.6668 11.4309 17.6668H16.1609C16.7881 17.6668 17.3897 17.4561 17.8332 17.081C18.2767 16.7059 18.5259 16.1972 18.5259 15.6668V15.3334C18.5259 15.1566 18.609 14.987 18.7568 14.862C18.9046 14.737 19.1052 14.6668 19.3142 14.6668H26.0151V22.0001C26.0151 22.1769 25.932 22.3465 25.7842 22.4715C25.6364 22.5966 25.4358 22.6668 25.2268 22.6668Z" fill="#FFFFFF"/>
</svg>


