<svg width="23" height="24" viewBox="0 0 23 24" fill="none" xmlns="http://www.w3.org/2000/svg">
<path d="M22.7908 0.221872C22.8922 0.327834 22.9615 0.462544 22.9901 0.609268C23.0188 0.755992 23.0055 0.908264 22.9519 1.04717L14.4302 23.2797C14.3551 23.4755 14.2297 23.6459 14.0678 23.7721C13.9059 23.8983 13.7138 23.9755 13.5126 23.995C13.3113 24.0146 13.1088 23.9759 12.9274 23.8831C12.7459 23.7904 12.5924 23.6471 12.4839 23.4692L7.82987 15.8352L0.514887 10.9782C0.344011 10.8651 0.206401 10.7049 0.117242 10.5153C0.028083 10.3258 -0.0091588 10.1142 0.00962606 9.9039C0.0284109 9.69363 0.102492 9.49286 0.223695 9.32375C0.344898 9.15464 0.508511 9.02376 0.696481 8.94555L22 0.0552844C22.1331 -0.000633545 22.279 -0.0145103 22.4196 0.0153779C22.5602 0.0452661 22.6893 0.117602 22.7908 0.2234V0.221872ZM9.29141 15.389L13.3348 22.0189L20.2661 3.9357L9.29141 15.389ZM19.2307 2.85518L1.9032 10.0887L8.2575 14.3069L19.2307 2.85518Z" fill="var(--unselected-color)"/>
</svg>



